<?xml version="1.0" encoding="UTF-8" standalone="no"?>
<!-- Created with Inkscape (http://www.inkscape.org/) -->

<svg
   width="16"
   height="16"
   viewBox="0 0 16 16"
   version="1.1"
   id="svg1"
   inkscape:version="1.3 (0e150ed6c4, 2023-07-21)"
   sodipodi:docname="icon.svg"
   xmlns:inkscape="http://www.inkscape.org/namespaces/inkscape"
   xmlns:sodipodi="http://sodipodi.sourceforge.net/DTD/sodipodi-0.dtd"
   xmlns="http://www.w3.org/2000/svg"
   xmlns:svg="http://www.w3.org/2000/svg">
  <sodipodi:namedview
     id="namedview1"
     pagecolor="#505050"
     bordercolor="#ffffff"
     borderopacity="1"
     inkscape:showpageshadow="0"
     inkscape:pageopacity="0"
     inkscape:pagecheckerboard="1"
     inkscape:deskcolor="#d1d1d1"
     inkscape:document-units="mm"
     inkscape:zoom="41.665716"
     inkscape:cx="6.2401424"
     inkscape:cy="9.0242059"
     inkscape:current-layer="layer1"
     showgrid="true">
    <inkscape:grid
       id="grid1"
       units="px"
       originx="0"
       originy="0"
       spacingx="1"
       spacingy="1"
       empcolor="#0099e5"
       empopacity="0.30196078"
       color="#0099e5"
       opacity="0.14901961"
       empspacing="8"
       dotted="false"
       gridanglex="30"
       gridanglez="30"
       visible="true" />
  </sodipodi:namedview>
  <defs
     id="defs1" />
  <g
     inkscape:label="Layer"
     inkscape:groupmode="layer"
     id="layer1">
    <path
       d="M 2,7 C 1.4477153,7 1,7.4477153 1,8 v 6 c 0,0.552285 0.4477153,1 1,1 h 12 c 0.552285,0 1,-0.447715 1,-1 V 8 C 15,7.4477153 14.552285,7 14,7 Z m 2,1 h 2 v 2 h 2 v 2 H 6 v 2 H 4 V 12 H 2 v -2 h 2 z m 9,1 c 1.333333,0 1.333333,2 0,2 -1.333333,0 -1.333333,-2 0,-2 z m -2,2 c 1.333333,0 1.333333,2 0,2 -1.3333328,0 -1.3333328,-2 0,-2 z"
       fill="#fc7f7f"
       id="path1"
       sodipodi:nodetypes="ssssssssscccccccccccccssssss"
       style="fill:#8eef97;fill-opacity:1"
       inkscape:label="gamepad" />
    <path
       d="m 8.0309725,0.99157133 a 3.4336245,3.4336245 0 0 0 -2.9735188,1.71681217 0.42937952,0.42937952 0 0 0 0.7438089,0.4292032 2.5752184,2.5752184 0 0 1 4.4594204,0 0.42937951,0.42937951 0 0 0 0.743808,-0.4292032 3.4336245,3.4336245 0 0 0 -2.9735185,-1.71681217 z m 0,1.71681217 a 1.7168123,1.7168123 0 0 0 -1.6580114,1.2725872 0.42920306,0.42920306 0 0 0 0.8287911,0.2218979 0.85840614,0.85840614 0 0 1 1.6584406,0 A 0.42920306,0.42920306 0 0 0 9.688984,3.9809707 1.7168123,1.7168123 0 0 0 8.0309725,2.7083835 Z m 0,1.7168123 a 0.42920306,0.42920306 0 0 0 -0.429203,0.4292031 v 0.429203 H 6.3141602 a 1.7168124,1.7168124 0 0 0 3.4336247,0 H 8.4601756 V 4.8543989 A 0.42920306,0.42920306 0 0 0 8.0309725,4.4251958 Z"
       fill="#8da5f3"
       id="path1-6"
       style="fill:#fc7f7f;stroke-width:1;fill-opacity:1"
       inkscape:label="signal" />
  </g>
</svg>
