<svg width="128" height="128" viewBox="0 0 16 16" fill="none" xmlns="http://www.w3.org/2000/svg">
<g clip-path="url(#clip0_69_3)">
<path d="M12 0.5H4C2.067 0.5 0.5 2.067 0.5 4V12C0.5 13.933 2.067 15.5 4 15.5H12C13.933 15.5 15.5 13.933 15.5 12V4C15.5 2.067 13.933 0.5 12 0.5Z" fill="url(#paint0_linear_69_3)" stroke="url(#paint1_linear_69_3)" stroke-linecap="round"/>
<path d="M8 5.42478C7.76296 5.42478 7.5708 5.61695 7.5708 5.85399V6.28319H6.28319C6.28319 8.57227 9.71681 8.57227 9.71681 6.28319H8.4292V5.85399C8.4292 5.61695 8.23704 5.42478 8 5.42478Z" fill="#FFA348"/>
<path d="M8.00014 1.85398C6.77346 1.85402 5.63996 2.50846 5.02662 3.5708C4.74062 4.06663 5.48443 4.49584 5.77043 4C6.76185 2.28433 9.23843 2.28433 10.2298 4C10.5163 4.49482 11.2587 4.06639 10.9737 3.5708C10.3603 2.50846 9.22682 1.85402 8.00014 1.85398ZM8.00014 3.5708C7.22318 3.57095 6.54317 4.09288 6.34213 4.84338C6.21561 5.38332 7.01073 5.5962 7.17092 5.06528C7.39805 4.21665 8.60223 4.21665 8.82936 5.06528C8.98955 5.5962 9.78467 5.38332 9.65815 4.84338C9.45711 4.09288 8.7771 3.57095 8.00014 3.5708Z" fill="#F9F06B"/>
<path fill-rule="evenodd" clip-rule="evenodd" d="M4 8C3.44772 8 3 8.44771 3 9V12C3 12.5523 3.44772 13 4 13H12C12.5523 13 13 12.5523 13 12V9C13 8.44771 12.5523 8 12 8H4ZM4 10V11H5V12H6V11H7V10H6V9H5V10H4ZM10 10.5C10 10.7761 9.77614 11 9.5 11C9.22386 11 9 10.7761 9 10.5C9 10.2239 9.22386 10 9.5 10C9.77614 10 10 10.2239 10 10.5ZM10.5 10C10.7761 10 11 9.77614 11 9.5C11 9.22386 10.7761 9 10.5 9C10.2239 9 10 9.22386 10 9.5C10 9.77614 10.2239 10 10.5 10ZM11 11.5C11 11.7761 10.7761 12 10.5 12C10.2239 12 10 11.7761 10 11.5C10 11.2239 10.2239 11 10.5 11C10.7761 11 11 11.2239 11 11.5ZM11.5 11C11.7761 11 12 10.7761 12 10.5C12 10.2239 11.7761 10 11.5 10C11.2239 10 11 10.2239 11 10.5C11 10.7761 11.2239 11 11.5 11Z" fill="#33D17A"/>
</g>
<defs>
<linearGradient id="paint0_linear_69_3" x1="16" y1="16" x2="0" y2="0" gradientUnits="userSpaceOnUse">
<stop/>
<stop offset="1" stop-color="#241F31"/>
</linearGradient>
<linearGradient id="paint1_linear_69_3" x1="16" y1="16" x2="0" y2="0" gradientUnits="userSpaceOnUse">
<stop stop-color="#1A5FB4"/>
<stop offset="1" stop-color="#99C1F1"/>
</linearGradient>
<clipPath id="clip0_69_3">
<rect width="16" height="16" fill="white"/>
</clipPath>
</defs>
</svg>
